<?xml version="1.0" encoding="iso-8859-1"?>
<!-- Generator: Adobe Illustrator 18.1.1, SVG Export Plug-In . SVG Version: 6.00 Build 0)  -->
<svg version="1.1" id="Capa_1" xmlns="http://www.w3.org/2000/svg" xmlns:xlink="http://www.w3.org/1999/xlink" x="0px" y="0px"
	 viewBox="0 0 26.931 26.931" style="enable-background:new 0 0 26.931 26.931;" xml:space="preserve">
<g>
	<path style="fill:#030104;" d="M26.931,17.707v-4.609c0-1.733-0.01-3.21-0.014-3.811l-5.734,4.021L26.931,17.707z"/>
	<path style="fill:#030104;" d="M0,17.536v-4.609c0-1.732,0.009-3.209,0.015-3.81l5.733,4.021L0,17.536z"/>
	<path style="fill:#030104;" d="M18.731,14.44l-4.808,3.373c-0.124,0.088-0.278,0.13-0.431,0.13c-0.15,0-0.302-0.042-0.432-0.13
		l-4.795-3.366l-8.052,6.162C0.15,20.657,0.077,20.693,0,20.718v0.086l0.02,5.095h26.879l0.019-5.095V20.7L18.731,14.44z"/>
	<polygon style="fill:#030104;" points="13.462,1.032 26.713,9.111 0.779,9.111 0.205,9.116 	"/>
</g>
<g>
</g>
<g>
</g>
<g>
</g>
<g>
</g>
<g>
</g>
<g>
</g>
<g>
</g>
<g>
</g>
<g>
</g>
<g>
</g>
<g>
</g>
<g>
</g>
<g>
</g>
<g>
</g>
<g>
</g>
</svg>
